<svg width="19" height="19" viewBox="0 0 19 19" fill="none" xmlns="http://www.w3.org/2000/svg">
<path fill-rule="evenodd" clip-rule="evenodd" d="M13.146 0H5.05603C2.26403 0 0 2.26006 0 5.06006V13.1499C0 15.9399 2.26403 18.1997 5.05603 18.1997H13.146C15.939 18.1997 18.203 15.9399 18.203 13.1499V5.06006C18.203 2.26006 15.939 0 13.146 0ZM16.433 13.1499C16.428 14.9599 14.959 16.4297 13.146 16.4297H5.05603C3.24303 16.4297 1.77501 14.9599 1.76901 13.1499V5.06006C1.77501 3.24006 3.24303 1.77002 5.05603 1.77002H13.146C14.959 1.77002 16.428 3.24006 16.433 5.06006V13.1499ZM13.905 5.31006C14.463 5.31006 14.916 4.8598 14.916 4.2998C14.916 3.7398 14.463 3.29004 13.905 3.29004C13.346 3.29004 12.894 3.7398 12.894 4.2998C12.894 4.8598 13.346 5.31006 13.905 5.31006ZM9.10101 4.5498C6.58801 4.5498 4.54999 6.58961 4.54999 9.09961C4.54999 11.6096 6.58801 13.6499 9.10101 13.6499C11.615 13.6499 13.652 11.6096 13.652 9.09961C13.655 7.88961 13.176 6.72988 12.322 5.87988C11.468 5.02988 10.309 4.5498 9.10101 4.5498ZM6.32001 9.09961C6.32001 10.6396 7.56501 11.8799 9.10101 11.8799C10.637 11.8799 11.882 10.6396 11.882 9.09961C11.882 7.56961 10.637 6.31982 9.10101 6.31982C7.56501 6.31982 6.32001 7.56961 6.32001 9.09961Z" fill="white"/>
</svg>
