<svg width="27" height="27" viewBox="0 0 27 27" fill="none" xmlns="http://www.w3.org/2000/svg">
<path d="M26.2524 24.0151L21.1124 18.8802C22.6724 16.843 23.5225 14.3719 23.5225 11.7644C23.5225 8.6221 22.3025 5.6676 20.0825 3.4457C17.8625 1.2238 14.9024 0 11.7624 0C8.62245 0 5.6625 1.2238 3.4425 3.4457C-1.1475 8.033 -1.1475 15.4966 3.4425 20.0831C5.6625 22.3054 8.62245 23.5292 11.7624 23.5292C14.3724 23.5289 16.8424 22.6754 18.8824 21.1191L24.0124 26.2541C24.3224 26.5633 24.7224 26.7179 25.1324 26.7179C25.5324 26.7179 25.9424 26.5633 26.2524 26.2541C26.8724 25.636 26.8724 24.6332 26.2524 24.0151ZM5.68249 17.8441C2.33249 14.4919 2.33249 9.0372 5.68249 5.6846C7.30249 4.0611 9.46245 3.1666 11.7624 3.1666C14.0624 3.1666 16.2224 4.0611 17.8424 5.6846C19.4624 7.3086 20.3624 9.4679 20.3624 11.7644C20.3624 14.0613 19.4624 16.2202 17.8424 17.8441C16.2224 19.4681 14.0624 20.3626 11.7624 20.3626C9.46245 20.3626 7.30249 19.4681 5.68249 17.8441Z" fill="#032E15"/>
</svg>
