<svg width="13" height="13" viewBox="0 0 13 13" fill="none" xmlns="http://www.w3.org/2000/svg">
<path d="M11.4771 4.75C11.2711 4.54 11.0571 4.32 10.9771 4.12C10.9031 3.94 10.898 3.63999 10.894 3.35999C10.886 2.81999 10.8771 2.22005 10.4561 1.80005C10.0361 1.38005 9.43103 1.36999 8.89703 1.35999C8.61003 1.35999 8.31401 1.35003 8.13501 1.28003C7.94001 1.20003 7.71801 0.980029 7.50201 0.780029C7.12501 0.420029 6.696 0 6.125 0C5.554 0 5.12605 0.420029 4.74805 0.780029C4.53305 0.980029 4.31105 1.20003 4.11505 1.28003C3.93805 1.35003 3.64003 1.35999 3.35303 1.35999C2.81903 1.36999 2.21401 1.38005 1.79401 1.80005C1.37301 2.22005 1.36702 2.81999 1.35602 3.35999C1.35202 3.63999 1.34801 3.94 1.27301 4.12C1.19301 4.31 0.98001 4.54 0.77301 4.75C0.41101 5.13 0 5.56 0 6.13C0 6.7 0.41101 7.13001 0.77301 7.51001C0.98001 7.72001 1.19301 7.94001 1.27301 8.14001C1.34801 8.32001 1.35202 8.61002 1.35602 8.90002C1.36502 9.44002 1.37301 10.0401 1.79401 10.4601C2.21401 10.8801 2.81903 10.89 3.35303 10.9C3.64003 10.9 3.93705 10.91 4.11505 10.98C4.31005 11.06 4.53305 11.28 4.74805 11.48C5.12505 11.84 5.554 12.25 6.125 12.25C6.696 12.25 7.12401 11.84 7.50201 11.48C7.71801 11.28 7.94001 11.06 8.13501 10.98C8.31401 10.91 8.61003 10.9 8.89703 10.9C9.43103 10.89 10.0361 10.8801 10.4561 10.4601C10.8771 10.0401 10.886 9.44002 10.894 8.90002C10.898 8.61002 10.9031 8.32001 10.9771 8.14001C11.0571 7.94001 11.2711 7.72001 11.4771 7.51001C11.8391 7.13001 12.25 6.7 12.25 6.13C12.25 5.56 11.8391 5.13 11.4771 4.75ZM10.845 6.90002C10.583 7.17002 10.312 7.46005 10.168 7.80005C10.03 8.14005 10.024 8.52001 10.019 8.89001C10.013 9.27001 10.007 9.67009 9.83704 9.84009C9.66704 10.0101 9.26903 10.02 8.88403 10.02C8.51503 10.03 8.13405 10.04 7.80005 10.17C7.45305 10.32 7.17003 10.5901 6.89703 10.8501C6.62303 11.1101 6.344 11.38 6.125 11.38C5.906 11.38 5.625 11.1101 5.354 10.8501C5.082 10.5901 4.79701 10.32 4.45001 10.17C4.11601 10.04 3.73503 10.03 3.36603 10.02C2.98303 10.02 2.58202 10.0101 2.41302 9.84009C2.24302 9.67009 2.23702 9.27001 2.23102 8.89001C2.22602 8.52001 2.22003 8.14005 2.08203 7.80005C1.93803 7.46005 1.66703 7.17002 1.40503 6.90002C1.14303 6.63002 0.875 6.35 0.875 6.13C0.875 5.91 1.14403 5.62999 1.40503 5.35999C1.66603 5.08999 1.93803 4.80007 2.08203 4.45007C2.22003 4.12007 2.22602 3.74 2.23102 3.37C2.23702 2.99 2.24302 2.59004 2.41302 2.42004C2.58302 2.25004 2.98103 2.23999 3.36603 2.23999C3.73503 2.22999 4.11601 2.22009 4.45001 2.09009C4.79701 1.94009 5.08 1.67003 5.354 1.41003C5.627 1.15003 5.906 0.880005 6.125 0.880005C6.344 0.880005 6.62603 1.15003 6.89703 1.41003C7.16803 1.67003 7.45305 1.94009 7.80005 2.09009C8.13405 2.22009 8.51503 2.22999 8.88403 2.23999C9.26703 2.23999 9.66804 2.25004 9.83704 2.42004C10.007 2.59004 10.013 2.99 10.019 3.37C10.024 3.74 10.03 4.12007 10.168 4.45007C10.312 4.80007 10.583 5.07999 10.845 5.35999C11.107 5.62999 11.375 5.91 11.375 6.13C11.375 6.35 11.106 6.63002 10.845 6.90002ZM8.62201 4.51001C8.66301 4.55001 8.69504 4.60002 8.71704 4.65002C8.73904 4.70002 8.75 4.76007 8.75 4.82007C8.75 4.87007 8.73904 4.92998 8.71704 4.97998C8.69504 5.03998 8.66301 5.09 8.62201 5.13L5.56 8.19006C5.519 8.23006 5.47103 8.26003 5.41803 8.28003C5.36503 8.31003 5.308 8.32007 5.25 8.32007C5.193 8.32007 5.13601 8.31003 5.08301 8.28003C5.03001 8.26003 4.98104 8.23006 4.94104 8.19006L3.62805 6.88C3.54605 6.79 3.5 6.68007 3.5 6.57007C3.5 6.45007 3.54605 6.34001 3.62805 6.26001C3.71005 6.18001 3.82205 6.13 3.93805 6.13C4.05405 6.13 4.16501 6.18001 4.24701 6.26001L5.25 7.26001L8.00305 4.51001C8.04405 4.47001 8.09202 4.43003 8.14502 4.41003C8.19802 4.39003 8.25505 4.38 8.31305 4.38C8.37005 4.38 8.42704 4.39003 8.48004 4.41003C8.53304 4.43003 8.58201 4.47001 8.62201 4.51001Z" fill="url(#paint0_linear_16_183)" fill-opacity="0.6"/>
<defs>
<linearGradient id="paint0_linear_16_183" x1="6.125" y1="0" x2="6.125" y2="12.25" gradientUnits="userSpaceOnUse">
<stop stop-color="#032E15"/>
<stop offset="1" stop-color="#016630"/>
</linearGradient>
</defs>
</svg>
